<?xml version="1.0" encoding="UTF-8" standalone="no"?>
<!-- Created with Inkscape (http://www.inkscape.org/) -->

<svg
   width="22.168854mm"
   height="14.455634mm"
   viewBox="0 0 22.168854 14.455634"
   version="1.1"
   id="svg5"
   xml:space="preserve"
   inkscape:version="1.2 (dc2aedaf03, 2022-05-15)"
   sodipodi:docname="Logo-Elembrante-Icon.svg"
   xmlns:inkscape="http://www.inkscape.org/namespaces/inkscape"
   xmlns:sodipodi="http://sodipodi.sourceforge.net/DTD/sodipodi-0.dtd"
   xmlns="http://www.w3.org/2000/svg"
   xmlns:svg="http://www.w3.org/2000/svg"><sodipodi:namedview
     id="namedview7"
     pagecolor="#ffffff"
     bordercolor="#666666"
     borderopacity="1.0"
     inkscape:showpageshadow="2"
     inkscape:pageopacity="0.0"
     inkscape:pagecheckerboard="0"
     inkscape:deskcolor="#d1d1d1"
     inkscape:document-units="mm"
     showgrid="false"
     inkscape:zoom="5.9651517"
     inkscape:cx="26.319532"
     inkscape:cy="17.518414"
     inkscape:window-width="1377"
     inkscape:window-height="1040"
     inkscape:window-x="370"
     inkscape:window-y="1"
     inkscape:window-maximized="0"
     inkscape:current-layer="svg5" /><defs
     id="defs2" /><g
     inkscape:label="Camada 1"
     inkscape:groupmode="layer"
     id="layer1"
     transform="translate(-895.46562,-147.65928)" /><text
     xml:space="preserve"
     style="font-size:16.0916px;line-height:1.25;font-family:sans-serif;text-align:end;text-anchor:end;fill:#4ab354;fill-opacity:1;stroke-width:0.402288"
     x="-134.70134"
     y="-48.560059"
     id="text1929"><tspan
       sodipodi:role="line"
       id="tspan1927"
       style="fill:#4ab354;fill-opacity:1;stroke-width:0.402288"
       x="-134.70134"
       y="-48.560059" /></text><path
     d="m 0.42248282,6.6895102 c 0.35777,0.42174 0.94108998,0.46762 1.42527998,0.27986 1.08261,-0.41984 1.986,-1.54072 2.29876,-2.65001 0.1002,-0.35552 0.16219,-0.72325 0.23839,-1.0856 0.0153,-0.0725 0.031,-0.14474 0.0478,-0.21665 0.14128,-0.90316 0.5407,-1.8071 1.31696,-2.35006999 1.39335,-0.9746 3.32207,-0.6383 4.6421902,0.2706 0.0552,0.034 0.10825,0.0678 0.16014,0.10085999 0.25944,0.16503 0.48938,0.30859 0.80616,0.33721 0.40625,0.0367 0.82812,-0.005 1.23026,-0.0628 2.4508,-0.35183999 6.09532,0.13939 7.1503,2.79454 0.38794,0.97641 0.27103,2.06142 -0.0353,3.04284 -0.0753,0.24136 -0.17017,0.48076 -0.18659,0.7332 -0.0576,0.88477 0.8744,1.34383 1.381883,1.91244 0.55876,0.6260898 0.9674,1.3890398 1.16878,2.2063298 0.0175,0.0715 0.0337,0.14649 0.0167,0.21816 -0.0231,0.0985 -0.10314,0.17164 -0.18106,0.23573 -0.27569,0.2268 -1.07318,0.95974 -1.410563,0.6508 -0.27376,-0.25072 -0.26127,-0.75995 -0.43856,-1.07169 -0.31437,-0.55287 -0.74807,-1.02849 -1.18717,-1.48278 -0.4842,-0.501 -0.94219,-1.0592998 -1.31579,-1.6481198 -0.14196,-0.22377 -0.44529,-0.64231 -0.3701,-0.93284 0.12976,-0.50141 0.69691,-0.122 0.8758,0.15386 0.554,0.85443 0.59934,2.0351898 0.59698,3.0201598 -10e-4,0.52595 0.0479,1.05037 0.017,1.57796 -0.0281,0.48066 -0.086,0.93295 -0.14063,1.40473 -0.004,0.0377 -0.009,0.0767 -0.0289,0.10907 -0.15088,0.24789 -1.28975,0.12879 -1.4958,-0.0486 -0.23236,-0.20016 -0.006,-0.68279 0.0318,-0.93189 0.0516,-0.34325 0.0855,-0.69185 0.0668,-1.03918 -0.0164,-0.30393 -0.0788,-0.60724 -0.19895,-0.8873 -0.44406,-1.03505 -1.76269,-1.4859698 -2.7825,-1.6973198 -0.9205,-0.19079 -2.15333,-0.11639 -2.14543,1.1045398 0.006,0.99783 0.17037,2.03181 0.099,3.02151 -0.004,0.0615 -0.0139,0.13034 -0.0627,0.16766 -0.0402,0.0307 -0.095,0.0303 -0.1455,0.0286 -0.25903,-0.009 -1.26277,0.23096 -1.27264,-0.13278 -0.0192,-0.70697 -0.0817,-1.36947 -0.21906,-2.06412 -0.14212,-0.71828 -0.27652,-1.44688 -0.12926,-2.1765298 0.1119,-0.55449 0.40551,-1.09805 0.89347,-1.3795 0.18159,-0.10475 0.45874,-0.14551 0.56161,0.0379 0.0694,0.12362 0.0138,0.27857 -0.0517,0.40433 -0.24069,0.46252 -0.61424,0.85116 -1.0576,1.12083 -0.39002,0.2372698 -0.7834302,0.22711 -1.1798602,0.3833198 -0.51329,0.20224 -0.83071,0.76031 -1.03833,1.24276 -0.11388,0.26461 -0.20661,0.54266 -0.2682,0.82445 -0.0369,0.1686 0.007,0.56091 -0.10341,0.69177 -0.17321,0.20494 -1.88724,0.34785 -1.99273,0.0867 -0.0778,-0.19432 0.16582,-0.74442 0.22697,-0.93897 0.0917,-0.29178 0.19973,-0.57869 0.32504,-0.85759 0.0163,-0.0362 0.0331,-0.0721 0.0507,-0.1077 0.36244,-0.73603 0.81071,-1.4515398 1.27885,-2.1235098 0.34892,-0.50079 0.20887,-1.1457 -0.006,-1.68815 -0.19126,-0.48254 -0.46702,-0.92621 -0.68478,-1.39725 -0.0403,-0.0873 -0.0767,-0.17163 -0.10925,-0.25385 -0.0325,-0.0822 -0.0611,-0.16233 -0.0858,-0.24118 -0.13008,-0.43089 -0.20134,-0.8786 -0.1882,-1.31996 0.002,-0.0884 0.008,-0.17658 0.0171,-0.26512 0.21144,-2.11676 2.12075,-3.36445999 4.0523902,-2.2803 0.0737,0.0413 0.14562,0.0858 0.21566,0.13386 0.4109,0.30858 0.83526,0.68521 0.8852,1.21251 0.0499,0.45196 -0.29959,0.77839 -0.62594,1.04127 -0.0635,0.0462 -0.12906,0.0898 -0.19676,0.13049 -0.20304,0.12188 -0.42546,0.2168 -0.65013,0.28456 -0.0749,0.0503 -0.0999,0.15068 -0.1326,0.25088 -0.0135,0.0603 -0.0219,0.1238 -0.0289,0.18763 -0.0282,0.25524 -0.0379,0.51452 -0.17,0.72985 -0.6465602,1.05392 -2.1026502,0.17257 -3.0448002,0.21809 -0.39443,0.019 -0.80359,-0.0227 -1.18101,0.12092 -0.28025,0.10662 -0.52587,0.2879 -0.75792,0.47857 -0.34548,0.28384 -0.68968,0.62995 -0.75202,1.07421 -0.0124,0.0884 9.7e-4,0.20047 0.0832,0.23295 0.037,0.0146 0.0786,0.008 0.11722,-9.7e-4 0.43614,-0.10282 0.73747,-0.50131 0.94444,-0.90091 0.13848,-0.26738 0.44461,-0.92412 0.035,-1.0239 -0.31887,-0.0777 -0.56385,0.24789 -0.74053,0.45483 -0.73878,0.86552 -1.78796,1.60363 -2.91621,1.48767 -0.37802,-0.0389 -0.7458,-0.17467 -1.05902998,-0.39106 -0.79398,-0.54857 -1.06764,-1.85743 -0.61964,-2.68563 0.29855,-0.55186 0.62488,-1.09105 0.86135998,-1.67259 0.23643,-0.58152 0.38101,-1.21677 0.29543,-1.83912 -0.029,-0.21118999 -0.0875,-0.31912999 -0.21219,-0.48193999 -0.17843,-0.233 -0.43911998,-0.40088 -0.72419998,-0.46631"
     style="fill:none;stroke:#4ab354;stroke-width:0.35;stroke-linecap:round;stroke-linejoin:round;stroke-miterlimit:10;stroke-dasharray:none;stroke-opacity:1"
     id="path7175-5-1" /></svg>
