<?xml version="1.0" encoding="UTF-8" standalone="no"?>
<!-- Created with Inkscape (http://www.inkscape.org/) -->

<svg
   width="61.834682mm"
   height="38.011063mm"
   viewBox="0 0 61.834683 38.011062"
   version="1.1"
   id="svg5"
   xml:space="preserve"
   inkscape:version="1.2 (dc2aedaf03, 2022-05-15)"
   sodipodi:docname="Logo-Elembrante-Smartphone.svg"
   xmlns:inkscape="http://www.inkscape.org/namespaces/inkscape"
   xmlns:sodipodi="http://sodipodi.sourceforge.net/DTD/sodipodi-0.dtd"
   xmlns="http://www.w3.org/2000/svg"
   xmlns:svg="http://www.w3.org/2000/svg"><sodipodi:namedview
     id="namedview7"
     pagecolor="#ffffff"
     bordercolor="#666666"
     borderopacity="1.0"
     inkscape:showpageshadow="2"
     inkscape:pageopacity="0.0"
     inkscape:pagecheckerboard="0"
     inkscape:deskcolor="#d1d1d1"
     inkscape:document-units="mm"
     showgrid="false"
     inkscape:zoom="1.0544998"
     inkscape:cx="148.4116"
     inkscape:cy="-26.552874"
     inkscape:window-width="1920"
     inkscape:window-height="1017"
     inkscape:window-x="-8"
     inkscape:window-y="-8"
     inkscape:window-maximized="1"
     inkscape:current-layer="svg5" /><defs
     id="defs2" /><g
     inkscape:label="Camada 1"
     inkscape:groupmode="layer"
     id="layer1"
     transform="translate(-1087.9985,-143.47277)" /><text
     xml:space="preserve"
     style="font-size:16.0916px;line-height:1.25;font-family:sans-serif;text-align:end;text-anchor:end;fill:#4ab354;fill-opacity:1;stroke-width:0.402288"
     x="-327.23419"
     y="-44.373543"
     id="text1929"><tspan
       sodipodi:role="line"
       id="tspan1927"
       style="fill:#4ab354;fill-opacity:1;stroke-width:0.402288"
       x="-327.23419"
       y="-44.373543" /></text><text
     xml:space="preserve"
     style="font-style:normal;font-variant:normal;font-weight:normal;font-stretch:normal;font-size:10.0834px;line-height:1.25;font-family:'Maiandra GD';-inkscape-font-specification:'Maiandra GD, Normal';font-variant-ligatures:normal;font-variant-caps:normal;font-variant-numeric:normal;font-variant-east-asian:normal;text-align:end;text-anchor:end;fill:#4ab354;fill-opacity:1;stroke-width:0.252083"
     x="62.179329"
     y="7.2179022"
     id="text1929-2-0-4-2-2-2"><tspan
       sodipodi:role="line"
       id="tspan1927-9-4-4-4-9-6"
       style="font-style:normal;font-variant:normal;font-weight:normal;font-stretch:normal;font-size:10.0834px;font-family:'Maiandra GD';-inkscape-font-specification:'Maiandra GD, Normal';font-variant-ligatures:normal;font-variant-caps:normal;font-variant-numeric:normal;font-variant-east-asian:normal;fill:#4ab354;fill-opacity:1;stroke-width:0.252083"
       x="62.179329"
       y="7.2179022">ELEMBRANTE</tspan></text><path
     d="m 10.101261,22.848736 c 0.6985,0.823391 1.83735,0.912966 2.78267,0.546389 2.11365,-0.819682 3.8774,-3.008052 4.48802,-5.173793 0.19563,-0.694106 0.31666,-1.412051 0.46543,-2.119491 0.0299,-0.141547 0.0605,-0.282586 0.0933,-0.42298 0.27583,-1.7633 1.05565,-3.528123 2.57119,-4.5882 2.72033,-1.9027772 6.4859,-1.2461962 9.06326,0.528311 0.10777,0.06638 0.21135,0.132371 0.31265,0.196916 0.50653,0.322199 0.95545,0.602481 1.57393,0.658358 0.79314,0.07165 1.61679,-0.0098 2.40191,-0.122609 4.78487,-0.686921 11.90031,0.27214 13.96002,5.455968 0.7574,1.906312 0.52915,4.02465 -0.0689,5.940743 -0.14701,0.471223 -0.33223,0.93862 -0.36429,1.431475 -0.11246,1.727398 1.70715,2.623651 2.69795,3.733787 1.09091,1.222356 1.88872,2.711915 2.28189,4.307565 0.0342,0.139594 0.0658,0.286002 0.0326,0.425929 -0.0451,0.192308 -0.20137,0.335104 -0.3535,0.460231 -0.53825,0.442797 -2.09524,1.873765 -2.75395,1.270601 -0.53448,-0.489498 -0.51009,-1.483702 -0.85623,-2.092333 -0.61377,-1.079405 -1.46051,-2.00799 -2.31779,-2.894931 -0.94534,-0.978136 -1.8395,-2.068141 -2.56891,-3.217734 -0.27716,-0.436882 -0.86937,-1.254025 -0.72257,-1.821248 0.25334,-0.978936 1.36063,-0.238189 1.70988,0.300393 1.08162,1.668161 1.17014,3.973436 1.16553,5.89646 -0.002,1.026848 0.0935,2.050708 0.0332,3.080758 -0.0549,0.938425 -0.1679,1.821461 -0.27456,2.742549 -0.008,0.0736 -0.0176,0.149746 -0.0564,0.212945 -0.29457,0.483972 -2.51806,0.251445 -2.92035,-0.09488 -0.45365,-0.390786 -0.0117,-1.333057 0.0621,-1.819392 0.10074,-0.67015 0.16693,-1.350746 0.13042,-2.028862 -0.032,-0.593383 -0.15385,-1.185555 -0.38843,-1.732335 -0.86697,-2.020798 -3.44142,-2.901158 -5.43246,-3.313791 -1.79715,-0.372492 -4.20409,-0.227236 -4.18867,2.156466 0.0117,1.948131 0.33263,3.96684 0.19329,5.899098 -0.008,0.120071 -0.0271,0.254472 -0.12242,0.327334 -0.0785,0.05994 -0.18547,0.05916 -0.28407,0.05584 -0.50572,-0.01757 -2.46539,0.450919 -2.48466,-0.259235 -0.0375,-1.380265 -0.15951,-2.673709 -0.42768,-4.029921 -0.27747,-1.402346 -0.53987,-2.824841 -0.25237,-4.249384 0.21847,-1.082569 0.79171,-2.143798 1.74439,-2.693291 0.35453,-0.204511 0.89563,-0.284089 1.09647,0.07399 0.13549,0.241351 0.0269,0.543871 -0.10094,0.7894 -0.46992,0.903009 -1.19922,1.661778 -2.06483,2.188273 -0.76146,0.463236 -1.52954,0.443402 -2.30352,0.748379 -1.00213,0.394847 -1.62185,1.484405 -2.0272,2.426324 -0.22233,0.516616 -0.40338,1.059472 -0.52362,1.60963 -0.072,0.329169 0.0137,1.095102 -0.2019,1.350589 -0.33817,0.400118 -3.68458,0.679131 -3.89054,0.16927 -0.15189,-0.379384 0.32374,-1.453381 0.44313,-1.833214 0.17903,-0.569662 0.38995,-1.129816 0.6346,-1.674331 0.0318,-0.07068 0.0646,-0.140766 0.099,-0.21027 0.70762,-1.437001 1.58281,-2.833938 2.49679,-4.14587 0.68122,-0.977726 0.40779,-2.236829 -0.0117,-3.29589 -0.37341,-0.942096 -0.91179,-1.808303 -1.33694,-2.727946 -0.0787,-0.170441 -0.14975,-0.335085 -0.21329,-0.495608 -0.0635,-0.160485 -0.11929,-0.316928 -0.16752,-0.470872 -0.25396,-0.841256 -0.39309,-1.71535 -0.36743,-2.577047 0.004,-0.172589 0.0156,-0.34475 0.0334,-0.517612 0.41281,-4.132693 4.14049,-6.568661 7.91176,-4.451983 0.14389,0.08063 0.2843,0.167513 0.42104,0.261344 0.80223,0.602462 1.63074,1.337781 1.72824,2.367264 0.0974,0.882392 -0.58491,1.519704 -1.22206,2.032942 -0.12398,0.0902 -0.25198,0.175323 -0.38415,0.254765 -0.39641,0.237954 -0.83066,0.423273 -1.2693,0.555566 -0.14623,0.0982 -0.19504,0.294182 -0.25888,0.489809 -0.0264,0.117728 -0.0428,0.241703 -0.0564,0.366323 -0.0551,0.498322 -0.074,1.004532 -0.33191,1.424935 -1.26232,2.05764 -4.10514,0.33692 -5.94456,0.425792 -0.77008,0.0371 -1.56891,-0.04432 -2.30577,0.23608 -0.54715,0.208162 -1.02669,0.562087 -1.47974,0.934345 -0.6745,0.55416 -1.34651,1.229894 -1.46822,2.097253 -0.0242,0.172589 0.002,0.391391 0.16244,0.454804 0.0722,0.02851 0.15346,0.01562 0.22886,-0.0019 0.8515,-0.200743 1.43981,-0.978742 1.84389,-1.758908 0.27036,-0.522024 0.86804,-1.804222 0.0683,-1.999029 -0.62255,-0.151699 -1.10084,0.483973 -1.44578,0.887996 -1.44237,1.689813 -3.49076,3.130875 -5.69352,2.904478 -0.73803,-0.07595 -1.45607,-0.34102 -2.06761,-0.763493 -1.5501401,-1.07101 -2.0844301,-3.626386 -1.2097701,-5.243337 0.5828801,-1.077434 1.2200001,-2.130131 1.6816901,-3.265511 0.4616,-1.13534 0.74387,-2.375581 0.57679,-3.590637 -0.0566,-0.41232 -0.17083,-0.623059 -0.41427,-0.940924 -0.34836,-0.454901 -0.85733,-0.782665 -1.41391,-0.9104082"
     style="fill:none;stroke:#ececec;stroke-width:0.301258;stroke-linecap:round;stroke-linejoin:round;stroke-miterlimit:10;stroke-dasharray:none;stroke-opacity:1"
     id="path7175-5-1-3-8" /></svg>
